<svg width="21.000000" height="21.000000" viewBox="0 0 21 21" fill="none" xmlns="http://www.w3.org/2000/svg" xmlns:xlink="http://www.w3.org/1999/xlink">
	<desc>
			Created with Pixso.
	</desc>
	<defs/>
	<path id="Shape" d="M3 0L18 0C19.65 0 21 1.3501 21 3L21 18C21 19.6499 19.65 21 18 21L3 21C1.35001 21 0 19.6499 0 18L0 3C0 1.3501 1.35001 0 3 0ZM14 7L18 7L18 3L14 3L14 7ZM14 10.5C14 8.57007 12.43 7 10.5 7C8.57001 7 7 8.57007 7 10.5C7 12.4299 8.57001 14 10.5 14C12.43 14 14 12.4299 14 10.5ZM3 18L3 9L4.181 9C4.06259 9.49121 4.00186 9.99463 4 10.5C4 14.0898 6.91016 17 10.5 17C14.0898 17 17 14.0898 17 10.5C16.9986 9.99463 16.9379 9.49121 16.819 9L18 9L18 18L3 18Z" clip-rule="evenodd" fill="#FFFFFF" fill-opacity="1.000000" fill-rule="evenodd"/>
</svg>
