<svg width="26.008331" height="14.997314" viewBox="0 0 26.0083 14.9973" fill="none" xmlns="http://www.w3.org/2000/svg" xmlns:xlink="http://www.w3.org/1999/xlink">
	<path id="Shape" d="M16.138 11.5107C17.094 11.2017 18.318 13.5508 19.621 14.4497C20.599 15.1309 21.348 14.9839 21.348 14.9839L24.821 14.9338C24.821 14.9338 26.636 14.8218 25.778 13.3799C25.707 13.2598 25.275 12.3108 23.193 10.3577C21.016 8.3147 21.311 8.64575 23.932 5.11377C25.529 2.96069 26.168 1.64575 25.968 1.08569C25.776 0.546875 24.603 0.686768 24.603 0.686768L20.69 0.713867C20.309 0.714844 19.986 0.832764 19.839 1.22876C19.836 1.23267 19.218 2.89478 18.394 4.30786C16.653 7.29688 15.958 7.45581 15.67 7.2688C15.009 6.83569 15.176 5.53174 15.176 4.60474C15.176 1.70776 15.608 0.499756 14.33 0.187744C13.903 0.0837402 13.591 0.0158691 12.502 0.00585938C11.11 -0.0151367 9.92796 0.00585938 9.25797 0.334717C8.81297 0.557861 8.47197 1.04688 8.67897 1.07471C8.93896 1.10986 9.52197 1.23486 9.83397 1.66089C10.235 2.21289 10.223 3.44971 10.223 3.44971C10.223 3.44971 10.452 6.86084 9.68297 7.28369C9.15497 7.57373 8.43297 6.98169 6.87997 4.26782C6.08698 2.87988 5.48798 1.3457 5.48798 1.3457C5.48798 1.3457 5.37196 1.06079 5.16197 0.904785C4.91197 0.719727 4.56197 0.660889 4.56197 0.660889L0.847977 0.684814C0.847977 0.684814 0.289963 0.700684 0.0849762 0.946777C-0.0970306 1.16479 0.0699768 1.61475 0.0699768 1.61475C0.0699768 1.61475 2.97897 8.49585 6.27296 11.9617C9.29297 15.1438 12.725 14.9329 12.725 14.9329L14.28 14.9329C14.28 14.9329 14.749 14.8787 14.989 14.6208C15.213 14.3809 15.203 13.9297 15.203 13.9297C15.203 13.9297 15.172 11.8208 16.138 11.5107Z" fill="#FFFFFF" fill-opacity="1.000000" fill-rule="nonzero"/>
</svg>
