<svg width="360" height="40" viewBox="0 0 360 40" fill="none" xmlns="http://www.w3.org/2000/svg">
<path fill-rule="evenodd" clip-rule="evenodd" d="M4 0H356C358.2 0 360 1.8 360 4V40H0V4C0 1.8 1.8 0 4 0ZM16.9378 23.5C18.1883 25.6658 20.4991 27 23 27C26.866 27 30 23.866 30 20C30 16.134 26.866 13 23 13C20.4991 13 18.1883 14.3342 16.9378 16.5C15.6874 18.6658 15.6874 21.3342 16.9378 23.5ZM46.002 27C43.5011 27 41.1902 25.6658 39.9398 23.5C38.6893 21.3342 38.6893 18.6658 39.9398 16.5C41.1902 14.3342 43.5011 13 46.002 13C49.8679 13 53.002 16.134 53.002 20C53.002 23.866 49.8679 27 46.002 27ZM62.9508 23.5C64.2012 25.6658 66.5121 27 69.0129 27C72.8789 27 76.0129 23.866 76.0129 20C76.0129 16.134 72.8789 13 69.0129 13C66.5121 13 64.2012 14.3342 62.9508 16.5C61.7003 18.6658 61.7003 21.3342 62.9508 23.5Z" fill="#4D4D4D"/>
</svg>
